%TF.GenerationSoftware,KiCad,Pcbnew,5.1.9+dfsg1-1~bpo10+1*%
%TF.CreationDate,2022-05-07T14:54:34+02:00*%
%TF.ProjectId,vjeverica-mirror,766a6576-6572-4696-9361-2d6d6972726f,rev?*%
%TF.SameCoordinates,Original*%
%TF.FileFunction,Copper,L2,Bot*%
%TF.FilePolarity,Positive*%
%FSLAX46Y46*%
G04 Gerber Fmt 4.6, Leading zero omitted, Abs format (unit mm)*
G04 Created by KiCad (PCBNEW 5.1.9+dfsg1-1~bpo10+1) date 2022-05-07 14:54:34*
%MOMM*%
%LPD*%
G01*
G04 APERTURE LIST*
%TA.AperFunction,ComponentPad*%
%ADD10C,3.000000*%
%TD*%
%TA.AperFunction,ComponentPad*%
%ADD11C,0.100000*%
%TD*%
%TA.AperFunction,SMDPad,CuDef*%
%ADD12R,1.550000X1.300000*%
%TD*%
%TA.AperFunction,ViaPad*%
%ADD13C,0.600000*%
%TD*%
%TA.AperFunction,Conductor*%
%ADD14C,0.250000*%
%TD*%
%TA.AperFunction,Conductor*%
%ADD15C,0.500000*%
%TD*%
%TA.AperFunction,Conductor*%
%ADD16C,0.254000*%
%TD*%
%TA.AperFunction,Conductor*%
%ADD17C,0.100000*%
%TD*%
G04 APERTURE END LIST*
D10*
%TO.P,BT1,2*%
%TO.N,GND*%
X148844861Y-91685000D03*
%TA.AperFunction,ComponentPad*%
D11*
%TO.P,BT1,1*%
%TO.N,Net-(BT1-Pad1)*%
G36*
X130550962Y-103979038D02*
G01*
X129050962Y-101380962D01*
X131649038Y-99880962D01*
X133149038Y-102479038D01*
X130550962Y-103979038D01*
G37*
%TD.AperFunction*%
%TD*%
%TO.P,R1,1*%
%TO.N,Net-(D1-Pad2)*%
%TA.AperFunction,SMDPad,CuDef*%
G36*
G01*
X149127500Y-118540000D02*
X148652500Y-118540000D01*
G75*
G02*
X148415000Y-118302500I0J237500D01*
G01*
X148415000Y-117802500D01*
G75*
G02*
X148652500Y-117565000I237500J0D01*
G01*
X149127500Y-117565000D01*
G75*
G02*
X149365000Y-117802500I0J-237500D01*
G01*
X149365000Y-118302500D01*
G75*
G02*
X149127500Y-118540000I-237500J0D01*
G01*
G37*
%TD.AperFunction*%
%TO.P,R1,2*%
%TO.N,Net-(R1-Pad2)*%
%TA.AperFunction,SMDPad,CuDef*%
G36*
G01*
X149127500Y-116715000D02*
X148652500Y-116715000D01*
G75*
G02*
X148415000Y-116477500I0J237500D01*
G01*
X148415000Y-115977500D01*
G75*
G02*
X148652500Y-115740000I237500J0D01*
G01*
X149127500Y-115740000D01*
G75*
G02*
X149365000Y-115977500I0J-237500D01*
G01*
X149365000Y-116477500D01*
G75*
G02*
X149127500Y-116715000I-237500J0D01*
G01*
G37*
%TD.AperFunction*%
%TD*%
D12*
%TO.P,SW1,2*%
%TO.N,Net-(R1-Pad2)*%
X137244000Y-115352000D03*
%TO.P,SW1,1*%
%TO.N,Net-(BT1-Pad1)*%
X137244000Y-119852000D03*
X145204000Y-119852000D03*
%TO.P,SW1,2*%
%TO.N,Net-(R1-Pad2)*%
X145204000Y-115352000D03*
%TD*%
D13*
%TO.N,Net-(D1-Pad2)*%
X150030000Y-118070000D03*
X142470000Y-121160000D03*
%TO.N,GND*%
X142450000Y-118050000D03*
X151060000Y-115630000D03*
X129490000Y-114490000D03*
X122010000Y-106230000D03*
X119820000Y-95280000D03*
X123250000Y-84660000D03*
X131740000Y-77270000D03*
X142560000Y-75100000D03*
X153060000Y-78770000D03*
X160380000Y-86910000D03*
X162760000Y-97780000D03*
X159270000Y-108310000D03*
%TD*%
D14*
%TO.N,Net-(BT1-Pad1)*%
X145204000Y-119852000D02*
X137244000Y-119852000D01*
D15*
X131100000Y-101930000D02*
X131100000Y-108720000D01*
X131100000Y-108720000D02*
X134480000Y-112100000D01*
X134480000Y-112100000D02*
X134480000Y-116530000D01*
X137244000Y-119294000D02*
X137244000Y-119852000D01*
X134480000Y-116530000D02*
X137244000Y-119294000D01*
D14*
%TO.N,Net-(D1-Pad2)*%
X150012500Y-118052500D02*
X148890000Y-118052500D01*
X150030000Y-118070000D02*
X150012500Y-118052500D01*
X148890000Y-118052500D02*
X148890000Y-119030000D01*
X148890000Y-119030000D02*
X146600000Y-121320000D01*
X146600000Y-121320000D02*
X142630000Y-121320000D01*
X142630000Y-121320000D02*
X142470000Y-121160000D01*
%TO.N,Net-(R1-Pad2)*%
X148890000Y-116227500D02*
X147527500Y-116227500D01*
X146652000Y-115352000D02*
X145204000Y-115352000D01*
X147527500Y-116227500D02*
X146652000Y-115352000D01*
X145204000Y-115352000D02*
X137244000Y-115352000D01*
%TD*%
D16*
%TO.N,GND*%
X143441683Y-67318271D02*
X145571938Y-67552666D01*
X147679401Y-67941934D01*
X149752828Y-68483998D01*
X151781154Y-69175967D01*
X153753560Y-70014149D01*
X155659520Y-70994070D01*
X157488866Y-72110504D01*
X159231837Y-73357493D01*
X160879134Y-74728384D01*
X162421968Y-76215863D01*
X163852107Y-77811994D01*
X165161921Y-79508259D01*
X166344421Y-81295610D01*
X167393299Y-83164510D01*
X168302957Y-85104988D01*
X169068543Y-87106689D01*
X169685972Y-89158935D01*
X170151949Y-91250775D01*
X170463989Y-93371049D01*
X170620426Y-95508444D01*
X170620426Y-97651556D01*
X170463989Y-99788951D01*
X170151949Y-101909225D01*
X169685972Y-104001065D01*
X169068543Y-106053311D01*
X168302957Y-108055012D01*
X167393299Y-109995490D01*
X166344421Y-111864390D01*
X165161921Y-113651741D01*
X163852107Y-115348006D01*
X162421968Y-116944137D01*
X160879134Y-118431616D01*
X159231837Y-119802507D01*
X157488866Y-121049496D01*
X155659520Y-122165930D01*
X153753560Y-123145851D01*
X151781154Y-123984033D01*
X149752828Y-124676002D01*
X147679401Y-125218066D01*
X145571938Y-125607334D01*
X143441683Y-125841729D01*
X141300000Y-125920000D01*
X139158317Y-125841729D01*
X137028062Y-125607334D01*
X134920599Y-125218066D01*
X132847172Y-124676002D01*
X130818846Y-123984033D01*
X128846440Y-123145851D01*
X126940480Y-122165930D01*
X125111134Y-121049496D01*
X123368163Y-119802507D01*
X121720866Y-118431616D01*
X120178032Y-116944137D01*
X118747893Y-115348006D01*
X117438079Y-113651741D01*
X116255579Y-111864390D01*
X115206701Y-109995490D01*
X114297043Y-108055012D01*
X113531457Y-106053311D01*
X112914028Y-104001065D01*
X112448051Y-101909225D01*
X112364166Y-101339230D01*
X128414256Y-101339230D01*
X128418349Y-101464247D01*
X128446752Y-101586064D01*
X128498375Y-101699998D01*
X129998375Y-104298074D01*
X130071234Y-104399748D01*
X130162528Y-104485255D01*
X130215000Y-104517884D01*
X130215001Y-108676521D01*
X130210719Y-108720000D01*
X130227805Y-108893490D01*
X130278412Y-109060313D01*
X130360590Y-109214059D01*
X130443468Y-109315046D01*
X130443471Y-109315049D01*
X130471184Y-109348817D01*
X130504951Y-109376529D01*
X133595000Y-112466579D01*
X133595001Y-116486521D01*
X133590719Y-116530000D01*
X133607805Y-116703490D01*
X133658412Y-116870313D01*
X133740590Y-117024059D01*
X133823468Y-117125046D01*
X133823471Y-117125049D01*
X133851184Y-117158817D01*
X133884951Y-117186529D01*
X135837159Y-119138737D01*
X135830928Y-119202000D01*
X135830928Y-120502000D01*
X135843188Y-120626482D01*
X135879498Y-120746180D01*
X135938463Y-120856494D01*
X136017815Y-120953185D01*
X136114506Y-121032537D01*
X136224820Y-121091502D01*
X136344518Y-121127812D01*
X136469000Y-121140072D01*
X138019000Y-121140072D01*
X138143482Y-121127812D01*
X138263180Y-121091502D01*
X138373494Y-121032537D01*
X138470185Y-120953185D01*
X138549537Y-120856494D01*
X138608502Y-120746180D01*
X138644812Y-120626482D01*
X138646238Y-120612000D01*
X141711647Y-120612000D01*
X141641414Y-120717111D01*
X141570932Y-120887271D01*
X141535000Y-121067911D01*
X141535000Y-121252089D01*
X141570932Y-121432729D01*
X141641414Y-121602889D01*
X141743738Y-121756028D01*
X141873972Y-121886262D01*
X142027111Y-121988586D01*
X142197271Y-122059068D01*
X142377911Y-122095000D01*
X142562089Y-122095000D01*
X142622654Y-122082953D01*
X142629999Y-122083676D01*
X142667322Y-122080000D01*
X146562678Y-122080000D01*
X146600000Y-122083676D01*
X146637322Y-122080000D01*
X146637333Y-122080000D01*
X146748986Y-122069003D01*
X146892247Y-122025546D01*
X147024276Y-121954974D01*
X147140001Y-121860001D01*
X147163804Y-121830997D01*
X149401003Y-119593799D01*
X149430001Y-119570001D01*
X149456332Y-119537917D01*
X149524974Y-119454277D01*
X149595546Y-119322247D01*
X149604115Y-119293999D01*
X149639003Y-119178986D01*
X149650000Y-119067333D01*
X149650000Y-119067324D01*
X149653676Y-119030001D01*
X149650751Y-119000303D01*
X149711774Y-118950223D01*
X149757271Y-118969068D01*
X149937911Y-119005000D01*
X150122089Y-119005000D01*
X150302729Y-118969068D01*
X150472889Y-118898586D01*
X150626028Y-118796262D01*
X150756262Y-118666028D01*
X150858586Y-118512889D01*
X150929068Y-118342729D01*
X150965000Y-118162089D01*
X150965000Y-117977911D01*
X150929068Y-117797271D01*
X150858586Y-117627111D01*
X150756262Y-117473972D01*
X150626028Y-117343738D01*
X150472889Y-117241414D01*
X150302729Y-117170932D01*
X150122089Y-117135000D01*
X149937911Y-117135000D01*
X149757271Y-117170932D01*
X149740117Y-117178037D01*
X149693768Y-117140000D01*
X149746623Y-117096623D01*
X149855512Y-116963942D01*
X149936423Y-116812567D01*
X149986248Y-116648316D01*
X150003072Y-116477500D01*
X150003072Y-115977500D01*
X149986248Y-115806684D01*
X149936423Y-115642433D01*
X149855512Y-115491058D01*
X149746623Y-115358377D01*
X149613942Y-115249488D01*
X149462567Y-115168577D01*
X149298316Y-115118752D01*
X149127500Y-115101928D01*
X148652500Y-115101928D01*
X148481684Y-115118752D01*
X148317433Y-115168577D01*
X148166058Y-115249488D01*
X148033377Y-115358377D01*
X147943822Y-115467500D01*
X147842302Y-115467500D01*
X147215803Y-114841002D01*
X147192001Y-114811999D01*
X147076276Y-114717026D01*
X146944247Y-114646454D01*
X146800986Y-114602997D01*
X146689333Y-114592000D01*
X146689322Y-114592000D01*
X146652000Y-114588324D01*
X146614678Y-114592000D01*
X146606238Y-114592000D01*
X146604812Y-114577518D01*
X146568502Y-114457820D01*
X146509537Y-114347506D01*
X146430185Y-114250815D01*
X146333494Y-114171463D01*
X146223180Y-114112498D01*
X146103482Y-114076188D01*
X145979000Y-114063928D01*
X144429000Y-114063928D01*
X144304518Y-114076188D01*
X144184820Y-114112498D01*
X144074506Y-114171463D01*
X143977815Y-114250815D01*
X143898463Y-114347506D01*
X143839498Y-114457820D01*
X143803188Y-114577518D01*
X143801762Y-114592000D01*
X138646238Y-114592000D01*
X138644812Y-114577518D01*
X138608502Y-114457820D01*
X138549537Y-114347506D01*
X138470185Y-114250815D01*
X138373494Y-114171463D01*
X138263180Y-114112498D01*
X138143482Y-114076188D01*
X138019000Y-114063928D01*
X136469000Y-114063928D01*
X136344518Y-114076188D01*
X136224820Y-114112498D01*
X136114506Y-114171463D01*
X136017815Y-114250815D01*
X135938463Y-114347506D01*
X135879498Y-114457820D01*
X135843188Y-114577518D01*
X135830928Y-114702000D01*
X135830928Y-116002000D01*
X135843188Y-116126482D01*
X135879498Y-116246180D01*
X135938463Y-116356494D01*
X136017815Y-116453185D01*
X136114506Y-116532537D01*
X136224820Y-116591502D01*
X136344518Y-116627812D01*
X136469000Y-116640072D01*
X138019000Y-116640072D01*
X138143482Y-116627812D01*
X138263180Y-116591502D01*
X138373494Y-116532537D01*
X138470185Y-116453185D01*
X138549537Y-116356494D01*
X138608502Y-116246180D01*
X138644812Y-116126482D01*
X138646238Y-116112000D01*
X143801762Y-116112000D01*
X143803188Y-116126482D01*
X143839498Y-116246180D01*
X143898463Y-116356494D01*
X143977815Y-116453185D01*
X144074506Y-116532537D01*
X144184820Y-116591502D01*
X144304518Y-116627812D01*
X144429000Y-116640072D01*
X145979000Y-116640072D01*
X146103482Y-116627812D01*
X146223180Y-116591502D01*
X146333494Y-116532537D01*
X146430185Y-116453185D01*
X146509537Y-116356494D01*
X146534671Y-116309472D01*
X146963701Y-116738503D01*
X146987499Y-116767501D01*
X147016497Y-116791299D01*
X147103223Y-116862474D01*
X147223807Y-116926928D01*
X147235253Y-116933046D01*
X147378514Y-116976503D01*
X147490167Y-116987500D01*
X147490177Y-116987500D01*
X147527500Y-116991176D01*
X147564823Y-116987500D01*
X147943822Y-116987500D01*
X148033377Y-117096623D01*
X148086232Y-117140000D01*
X148033377Y-117183377D01*
X147924488Y-117316058D01*
X147843577Y-117467433D01*
X147793752Y-117631684D01*
X147776928Y-117802500D01*
X147776928Y-118302500D01*
X147793752Y-118473316D01*
X147843577Y-118637567D01*
X147924488Y-118788942D01*
X147983883Y-118861315D01*
X146617072Y-120228127D01*
X146617072Y-119202000D01*
X146604812Y-119077518D01*
X146568502Y-118957820D01*
X146509537Y-118847506D01*
X146430185Y-118750815D01*
X146333494Y-118671463D01*
X146223180Y-118612498D01*
X146103482Y-118576188D01*
X145979000Y-118563928D01*
X144429000Y-118563928D01*
X144304518Y-118576188D01*
X144184820Y-118612498D01*
X144074506Y-118671463D01*
X143977815Y-118750815D01*
X143898463Y-118847506D01*
X143839498Y-118957820D01*
X143803188Y-119077518D01*
X143801762Y-119092000D01*
X138646238Y-119092000D01*
X138644812Y-119077518D01*
X138608502Y-118957820D01*
X138549537Y-118847506D01*
X138470185Y-118750815D01*
X138373494Y-118671463D01*
X138263180Y-118612498D01*
X138143482Y-118576188D01*
X138019000Y-118563928D01*
X137765507Y-118563928D01*
X135365000Y-116163422D01*
X135365000Y-112143469D01*
X135369281Y-112100000D01*
X135365000Y-112056531D01*
X135365000Y-112056523D01*
X135352195Y-111926510D01*
X135301589Y-111759687D01*
X135219411Y-111605941D01*
X135108817Y-111471183D01*
X135075050Y-111443471D01*
X131985000Y-108353422D01*
X131985000Y-103887878D01*
X133468074Y-103031625D01*
X133569748Y-102958766D01*
X133655255Y-102867472D01*
X133721307Y-102761250D01*
X133765368Y-102644183D01*
X133785744Y-102520770D01*
X133781651Y-102395753D01*
X133753248Y-102273936D01*
X133701625Y-102160002D01*
X132201625Y-99561926D01*
X132128766Y-99460252D01*
X132037472Y-99374745D01*
X131931250Y-99308693D01*
X131814183Y-99264632D01*
X131690770Y-99244256D01*
X131565753Y-99248349D01*
X131443936Y-99276752D01*
X131330002Y-99328375D01*
X128731926Y-100828375D01*
X128630252Y-100901234D01*
X128544745Y-100992528D01*
X128478693Y-101098750D01*
X128434632Y-101215817D01*
X128414256Y-101339230D01*
X112364166Y-101339230D01*
X112136011Y-99788951D01*
X111979574Y-97651556D01*
X111979574Y-95508444D01*
X112116850Y-93632833D01*
X148454421Y-93632833D01*
X148747310Y-93828112D01*
X149167285Y-93805963D01*
X149574869Y-93702308D01*
X149954399Y-93521128D01*
X150291290Y-93269387D01*
X150572597Y-92956759D01*
X150749626Y-92672074D01*
X150726954Y-92320785D01*
X148934664Y-91840543D01*
X148454421Y-93632833D01*
X112116850Y-93632833D01*
X112136011Y-93371049D01*
X112398502Y-91587449D01*
X146701749Y-91587449D01*
X146723898Y-92007424D01*
X146827553Y-92415008D01*
X147008733Y-92794538D01*
X147260474Y-93131429D01*
X147573102Y-93412736D01*
X147857787Y-93589765D01*
X148209076Y-93567093D01*
X148689318Y-91774803D01*
X148019020Y-91595197D01*
X149000404Y-91595197D01*
X150792694Y-92075440D01*
X150987973Y-91782551D01*
X150965824Y-91362576D01*
X150862169Y-90954992D01*
X150680989Y-90575462D01*
X150429248Y-90238571D01*
X150116620Y-89957264D01*
X149831935Y-89780235D01*
X149480646Y-89802907D01*
X149000404Y-91595197D01*
X148019020Y-91595197D01*
X146897028Y-91294560D01*
X146701749Y-91587449D01*
X112398502Y-91587449D01*
X112448051Y-91250775D01*
X112571203Y-90697926D01*
X146940096Y-90697926D01*
X146962768Y-91049215D01*
X148755058Y-91529457D01*
X149235301Y-89737167D01*
X148942412Y-89541888D01*
X148522437Y-89564037D01*
X148114853Y-89667692D01*
X147735323Y-89848872D01*
X147398432Y-90100613D01*
X147117125Y-90413241D01*
X146940096Y-90697926D01*
X112571203Y-90697926D01*
X112914028Y-89158935D01*
X113531457Y-87106689D01*
X114297043Y-85104988D01*
X115206701Y-83164510D01*
X116255579Y-81295610D01*
X117438079Y-79508259D01*
X118747893Y-77811994D01*
X120178032Y-76215863D01*
X121720866Y-74728384D01*
X123368163Y-73357493D01*
X125111134Y-72110504D01*
X126940480Y-70994070D01*
X128846440Y-70014149D01*
X130818846Y-69175967D01*
X132847172Y-68483998D01*
X134920599Y-67941934D01*
X137028062Y-67552666D01*
X139158317Y-67318271D01*
X141300000Y-67240000D01*
X143441683Y-67318271D01*
%TA.AperFunction,Conductor*%
D17*
G36*
X143441683Y-67318271D02*
G01*
X145571938Y-67552666D01*
X147679401Y-67941934D01*
X149752828Y-68483998D01*
X151781154Y-69175967D01*
X153753560Y-70014149D01*
X155659520Y-70994070D01*
X157488866Y-72110504D01*
X159231837Y-73357493D01*
X160879134Y-74728384D01*
X162421968Y-76215863D01*
X163852107Y-77811994D01*
X165161921Y-79508259D01*
X166344421Y-81295610D01*
X167393299Y-83164510D01*
X168302957Y-85104988D01*
X169068543Y-87106689D01*
X169685972Y-89158935D01*
X170151949Y-91250775D01*
X170463989Y-93371049D01*
X170620426Y-95508444D01*
X170620426Y-97651556D01*
X170463989Y-99788951D01*
X170151949Y-101909225D01*
X169685972Y-104001065D01*
X169068543Y-106053311D01*
X168302957Y-108055012D01*
X167393299Y-109995490D01*
X166344421Y-111864390D01*
X165161921Y-113651741D01*
X163852107Y-115348006D01*
X162421968Y-116944137D01*
X160879134Y-118431616D01*
X159231837Y-119802507D01*
X157488866Y-121049496D01*
X155659520Y-122165930D01*
X153753560Y-123145851D01*
X151781154Y-123984033D01*
X149752828Y-124676002D01*
X147679401Y-125218066D01*
X145571938Y-125607334D01*
X143441683Y-125841729D01*
X141300000Y-125920000D01*
X139158317Y-125841729D01*
X137028062Y-125607334D01*
X134920599Y-125218066D01*
X132847172Y-124676002D01*
X130818846Y-123984033D01*
X128846440Y-123145851D01*
X126940480Y-122165930D01*
X125111134Y-121049496D01*
X123368163Y-119802507D01*
X121720866Y-118431616D01*
X120178032Y-116944137D01*
X118747893Y-115348006D01*
X117438079Y-113651741D01*
X116255579Y-111864390D01*
X115206701Y-109995490D01*
X114297043Y-108055012D01*
X113531457Y-106053311D01*
X112914028Y-104001065D01*
X112448051Y-101909225D01*
X112364166Y-101339230D01*
X128414256Y-101339230D01*
X128418349Y-101464247D01*
X128446752Y-101586064D01*
X128498375Y-101699998D01*
X129998375Y-104298074D01*
X130071234Y-104399748D01*
X130162528Y-104485255D01*
X130215000Y-104517884D01*
X130215001Y-108676521D01*
X130210719Y-108720000D01*
X130227805Y-108893490D01*
X130278412Y-109060313D01*
X130360590Y-109214059D01*
X130443468Y-109315046D01*
X130443471Y-109315049D01*
X130471184Y-109348817D01*
X130504951Y-109376529D01*
X133595000Y-112466579D01*
X133595001Y-116486521D01*
X133590719Y-116530000D01*
X133607805Y-116703490D01*
X133658412Y-116870313D01*
X133740590Y-117024059D01*
X133823468Y-117125046D01*
X133823471Y-117125049D01*
X133851184Y-117158817D01*
X133884951Y-117186529D01*
X135837159Y-119138737D01*
X135830928Y-119202000D01*
X135830928Y-120502000D01*
X135843188Y-120626482D01*
X135879498Y-120746180D01*
X135938463Y-120856494D01*
X136017815Y-120953185D01*
X136114506Y-121032537D01*
X136224820Y-121091502D01*
X136344518Y-121127812D01*
X136469000Y-121140072D01*
X138019000Y-121140072D01*
X138143482Y-121127812D01*
X138263180Y-121091502D01*
X138373494Y-121032537D01*
X138470185Y-120953185D01*
X138549537Y-120856494D01*
X138608502Y-120746180D01*
X138644812Y-120626482D01*
X138646238Y-120612000D01*
X141711647Y-120612000D01*
X141641414Y-120717111D01*
X141570932Y-120887271D01*
X141535000Y-121067911D01*
X141535000Y-121252089D01*
X141570932Y-121432729D01*
X141641414Y-121602889D01*
X141743738Y-121756028D01*
X141873972Y-121886262D01*
X142027111Y-121988586D01*
X142197271Y-122059068D01*
X142377911Y-122095000D01*
X142562089Y-122095000D01*
X142622654Y-122082953D01*
X142629999Y-122083676D01*
X142667322Y-122080000D01*
X146562678Y-122080000D01*
X146600000Y-122083676D01*
X146637322Y-122080000D01*
X146637333Y-122080000D01*
X146748986Y-122069003D01*
X146892247Y-122025546D01*
X147024276Y-121954974D01*
X147140001Y-121860001D01*
X147163804Y-121830997D01*
X149401003Y-119593799D01*
X149430001Y-119570001D01*
X149456332Y-119537917D01*
X149524974Y-119454277D01*
X149595546Y-119322247D01*
X149604115Y-119293999D01*
X149639003Y-119178986D01*
X149650000Y-119067333D01*
X149650000Y-119067324D01*
X149653676Y-119030001D01*
X149650751Y-119000303D01*
X149711774Y-118950223D01*
X149757271Y-118969068D01*
X149937911Y-119005000D01*
X150122089Y-119005000D01*
X150302729Y-118969068D01*
X150472889Y-118898586D01*
X150626028Y-118796262D01*
X150756262Y-118666028D01*
X150858586Y-118512889D01*
X150929068Y-118342729D01*
X150965000Y-118162089D01*
X150965000Y-117977911D01*
X150929068Y-117797271D01*
X150858586Y-117627111D01*
X150756262Y-117473972D01*
X150626028Y-117343738D01*
X150472889Y-117241414D01*
X150302729Y-117170932D01*
X150122089Y-117135000D01*
X149937911Y-117135000D01*
X149757271Y-117170932D01*
X149740117Y-117178037D01*
X149693768Y-117140000D01*
X149746623Y-117096623D01*
X149855512Y-116963942D01*
X149936423Y-116812567D01*
X149986248Y-116648316D01*
X150003072Y-116477500D01*
X150003072Y-115977500D01*
X149986248Y-115806684D01*
X149936423Y-115642433D01*
X149855512Y-115491058D01*
X149746623Y-115358377D01*
X149613942Y-115249488D01*
X149462567Y-115168577D01*
X149298316Y-115118752D01*
X149127500Y-115101928D01*
X148652500Y-115101928D01*
X148481684Y-115118752D01*
X148317433Y-115168577D01*
X148166058Y-115249488D01*
X148033377Y-115358377D01*
X147943822Y-115467500D01*
X147842302Y-115467500D01*
X147215803Y-114841002D01*
X147192001Y-114811999D01*
X147076276Y-114717026D01*
X146944247Y-114646454D01*
X146800986Y-114602997D01*
X146689333Y-114592000D01*
X146689322Y-114592000D01*
X146652000Y-114588324D01*
X146614678Y-114592000D01*
X146606238Y-114592000D01*
X146604812Y-114577518D01*
X146568502Y-114457820D01*
X146509537Y-114347506D01*
X146430185Y-114250815D01*
X146333494Y-114171463D01*
X146223180Y-114112498D01*
X146103482Y-114076188D01*
X145979000Y-114063928D01*
X144429000Y-114063928D01*
X144304518Y-114076188D01*
X144184820Y-114112498D01*
X144074506Y-114171463D01*
X143977815Y-114250815D01*
X143898463Y-114347506D01*
X143839498Y-114457820D01*
X143803188Y-114577518D01*
X143801762Y-114592000D01*
X138646238Y-114592000D01*
X138644812Y-114577518D01*
X138608502Y-114457820D01*
X138549537Y-114347506D01*
X138470185Y-114250815D01*
X138373494Y-114171463D01*
X138263180Y-114112498D01*
X138143482Y-114076188D01*
X138019000Y-114063928D01*
X136469000Y-114063928D01*
X136344518Y-114076188D01*
X136224820Y-114112498D01*
X136114506Y-114171463D01*
X136017815Y-114250815D01*
X135938463Y-114347506D01*
X135879498Y-114457820D01*
X135843188Y-114577518D01*
X135830928Y-114702000D01*
X135830928Y-116002000D01*
X135843188Y-116126482D01*
X135879498Y-116246180D01*
X135938463Y-116356494D01*
X136017815Y-116453185D01*
X136114506Y-116532537D01*
X136224820Y-116591502D01*
X136344518Y-116627812D01*
X136469000Y-116640072D01*
X138019000Y-116640072D01*
X138143482Y-116627812D01*
X138263180Y-116591502D01*
X138373494Y-116532537D01*
X138470185Y-116453185D01*
X138549537Y-116356494D01*
X138608502Y-116246180D01*
X138644812Y-116126482D01*
X138646238Y-116112000D01*
X143801762Y-116112000D01*
X143803188Y-116126482D01*
X143839498Y-116246180D01*
X143898463Y-116356494D01*
X143977815Y-116453185D01*
X144074506Y-116532537D01*
X144184820Y-116591502D01*
X144304518Y-116627812D01*
X144429000Y-116640072D01*
X145979000Y-116640072D01*
X146103482Y-116627812D01*
X146223180Y-116591502D01*
X146333494Y-116532537D01*
X146430185Y-116453185D01*
X146509537Y-116356494D01*
X146534671Y-116309472D01*
X146963701Y-116738503D01*
X146987499Y-116767501D01*
X147016497Y-116791299D01*
X147103223Y-116862474D01*
X147223807Y-116926928D01*
X147235253Y-116933046D01*
X147378514Y-116976503D01*
X147490167Y-116987500D01*
X147490177Y-116987500D01*
X147527500Y-116991176D01*
X147564823Y-116987500D01*
X147943822Y-116987500D01*
X148033377Y-117096623D01*
X148086232Y-117140000D01*
X148033377Y-117183377D01*
X147924488Y-117316058D01*
X147843577Y-117467433D01*
X147793752Y-117631684D01*
X147776928Y-117802500D01*
X147776928Y-118302500D01*
X147793752Y-118473316D01*
X147843577Y-118637567D01*
X147924488Y-118788942D01*
X147983883Y-118861315D01*
X146617072Y-120228127D01*
X146617072Y-119202000D01*
X146604812Y-119077518D01*
X146568502Y-118957820D01*
X146509537Y-118847506D01*
X146430185Y-118750815D01*
X146333494Y-118671463D01*
X146223180Y-118612498D01*
X146103482Y-118576188D01*
X145979000Y-118563928D01*
X144429000Y-118563928D01*
X144304518Y-118576188D01*
X144184820Y-118612498D01*
X144074506Y-118671463D01*
X143977815Y-118750815D01*
X143898463Y-118847506D01*
X143839498Y-118957820D01*
X143803188Y-119077518D01*
X143801762Y-119092000D01*
X138646238Y-119092000D01*
X138644812Y-119077518D01*
X138608502Y-118957820D01*
X138549537Y-118847506D01*
X138470185Y-118750815D01*
X138373494Y-118671463D01*
X138263180Y-118612498D01*
X138143482Y-118576188D01*
X138019000Y-118563928D01*
X137765507Y-118563928D01*
X135365000Y-116163422D01*
X135365000Y-112143469D01*
X135369281Y-112100000D01*
X135365000Y-112056531D01*
X135365000Y-112056523D01*
X135352195Y-111926510D01*
X135301589Y-111759687D01*
X135219411Y-111605941D01*
X135108817Y-111471183D01*
X135075050Y-111443471D01*
X131985000Y-108353422D01*
X131985000Y-103887878D01*
X133468074Y-103031625D01*
X133569748Y-102958766D01*
X133655255Y-102867472D01*
X133721307Y-102761250D01*
X133765368Y-102644183D01*
X133785744Y-102520770D01*
X133781651Y-102395753D01*
X133753248Y-102273936D01*
X133701625Y-102160002D01*
X132201625Y-99561926D01*
X132128766Y-99460252D01*
X132037472Y-99374745D01*
X131931250Y-99308693D01*
X131814183Y-99264632D01*
X131690770Y-99244256D01*
X131565753Y-99248349D01*
X131443936Y-99276752D01*
X131330002Y-99328375D01*
X128731926Y-100828375D01*
X128630252Y-100901234D01*
X128544745Y-100992528D01*
X128478693Y-101098750D01*
X128434632Y-101215817D01*
X128414256Y-101339230D01*
X112364166Y-101339230D01*
X112136011Y-99788951D01*
X111979574Y-97651556D01*
X111979574Y-95508444D01*
X112116850Y-93632833D01*
X148454421Y-93632833D01*
X148747310Y-93828112D01*
X149167285Y-93805963D01*
X149574869Y-93702308D01*
X149954399Y-93521128D01*
X150291290Y-93269387D01*
X150572597Y-92956759D01*
X150749626Y-92672074D01*
X150726954Y-92320785D01*
X148934664Y-91840543D01*
X148454421Y-93632833D01*
X112116850Y-93632833D01*
X112136011Y-93371049D01*
X112398502Y-91587449D01*
X146701749Y-91587449D01*
X146723898Y-92007424D01*
X146827553Y-92415008D01*
X147008733Y-92794538D01*
X147260474Y-93131429D01*
X147573102Y-93412736D01*
X147857787Y-93589765D01*
X148209076Y-93567093D01*
X148689318Y-91774803D01*
X148019020Y-91595197D01*
X149000404Y-91595197D01*
X150792694Y-92075440D01*
X150987973Y-91782551D01*
X150965824Y-91362576D01*
X150862169Y-90954992D01*
X150680989Y-90575462D01*
X150429248Y-90238571D01*
X150116620Y-89957264D01*
X149831935Y-89780235D01*
X149480646Y-89802907D01*
X149000404Y-91595197D01*
X148019020Y-91595197D01*
X146897028Y-91294560D01*
X146701749Y-91587449D01*
X112398502Y-91587449D01*
X112448051Y-91250775D01*
X112571203Y-90697926D01*
X146940096Y-90697926D01*
X146962768Y-91049215D01*
X148755058Y-91529457D01*
X149235301Y-89737167D01*
X148942412Y-89541888D01*
X148522437Y-89564037D01*
X148114853Y-89667692D01*
X147735323Y-89848872D01*
X147398432Y-90100613D01*
X147117125Y-90413241D01*
X146940096Y-90697926D01*
X112571203Y-90697926D01*
X112914028Y-89158935D01*
X113531457Y-87106689D01*
X114297043Y-85104988D01*
X115206701Y-83164510D01*
X116255579Y-81295610D01*
X117438079Y-79508259D01*
X118747893Y-77811994D01*
X120178032Y-76215863D01*
X121720866Y-74728384D01*
X123368163Y-73357493D01*
X125111134Y-72110504D01*
X126940480Y-70994070D01*
X128846440Y-70014149D01*
X130818846Y-69175967D01*
X132847172Y-68483998D01*
X134920599Y-67941934D01*
X137028062Y-67552666D01*
X139158317Y-67318271D01*
X141300000Y-67240000D01*
X143441683Y-67318271D01*
G37*
%TD.AperFunction*%
%TD*%
M02*
