%TF.GenerationSoftware,KiCad,Pcbnew,5.1.9+dfsg1-1~bpo10+1*%
%TF.CreationDate,2022-05-07T14:54:34+02:00*%
%TF.ProjectId,vjeverica-mirror,766a6576-6572-4696-9361-2d6d6972726f,rev?*%
%TF.SameCoordinates,Original*%
%TF.FileFunction,Copper,L1,Top*%
%TF.FilePolarity,Positive*%
%FSLAX46Y46*%
G04 Gerber Fmt 4.6, Leading zero omitted, Abs format (unit mm)*
G04 Created by KiCad (PCBNEW 5.1.9+dfsg1-1~bpo10+1) date 2022-05-07 14:54:34*
%MOMM*%
%LPD*%
G01*
G04 APERTURE LIST*
%TA.AperFunction,ComponentPad*%
%ADD10C,3.000000*%
%TD*%
%TA.AperFunction,ComponentPad*%
%ADD11C,0.100000*%
%TD*%
%TA.AperFunction,ViaPad*%
%ADD12C,0.600000*%
%TD*%
%TA.AperFunction,Conductor*%
%ADD13C,0.250000*%
%TD*%
G04 APERTURE END LIST*
D10*
%TO.P,BT1,2*%
%TO.N,GND*%
X148844861Y-91685000D03*
%TA.AperFunction,ComponentPad*%
D11*
%TO.P,BT1,1*%
%TO.N,Net-(BT1-Pad1)*%
G36*
X130550962Y-103979038D02*
G01*
X129050962Y-101380962D01*
X131649038Y-99880962D01*
X133149038Y-102479038D01*
X130550962Y-103979038D01*
G37*
%TD.AperFunction*%
%TD*%
%TO.P,D1,2*%
%TO.N,Net-(D1-Pad2)*%
%TA.AperFunction,SMDPad,CuDef*%
G36*
G01*
X153212213Y-77022965D02*
X152432787Y-76572964D01*
G75*
G02*
X152341282Y-76231460I125000J216505D01*
G01*
X152666283Y-75668541D01*
G75*
G02*
X153007788Y-75577035I216505J-124999D01*
G01*
X153787213Y-76027036D01*
G75*
G02*
X153878718Y-76368540I-125000J-216505D01*
G01*
X153553717Y-76931459D01*
G75*
G02*
X153212213Y-77022965I-216505J124999D01*
G01*
G37*
%TD.AperFunction*%
%TO.P,D1,1*%
%TO.N,GND*%
%TA.AperFunction,SMDPad,CuDef*%
G36*
G01*
X152187213Y-78798317D02*
X151407787Y-78348316D01*
G75*
G02*
X151316282Y-78006812I125000J216505D01*
G01*
X151641283Y-77443893D01*
G75*
G02*
X151982788Y-77352387I216505J-124999D01*
G01*
X152762213Y-77802388D01*
G75*
G02*
X152853718Y-78143892I-125000J-216505D01*
G01*
X152528717Y-78706811D01*
G75*
G02*
X152187213Y-78798317I-216505J124999D01*
G01*
G37*
%TD.AperFunction*%
%TD*%
%TO.P,D2,1*%
%TO.N,GND*%
%TA.AperFunction,SMDPad,CuDef*%
G36*
G01*
X159519360Y-86509712D02*
X159069359Y-85730287D01*
G75*
G02*
X159160865Y-85388783I216505J124999D01*
G01*
X159723784Y-85063782D01*
G75*
G02*
X160065288Y-85155288I124999J-216505D01*
G01*
X160515289Y-85934713D01*
G75*
G02*
X160423784Y-86276217I-216505J-124999D01*
G01*
X159860865Y-86601218D01*
G75*
G02*
X159519360Y-86509712I-125000J216505D01*
G01*
G37*
%TD.AperFunction*%
%TO.P,D2,2*%
%TO.N,Net-(D1-Pad2)*%
%TA.AperFunction,SMDPad,CuDef*%
G36*
G01*
X161294712Y-85484712D02*
X160844711Y-84705287D01*
G75*
G02*
X160936217Y-84363783I216505J124999D01*
G01*
X161499136Y-84038782D01*
G75*
G02*
X161840640Y-84130288I124999J-216505D01*
G01*
X162290641Y-84909713D01*
G75*
G02*
X162199136Y-85251217I-216505J-124999D01*
G01*
X161636217Y-85576218D01*
G75*
G02*
X161294712Y-85484712I-125000J216505D01*
G01*
G37*
%TD.AperFunction*%
%TD*%
%TO.P,D3,1*%
%TO.N,GND*%
%TA.AperFunction,SMDPad,CuDef*%
G36*
G01*
X162190000Y-97080001D02*
X162190000Y-96179999D01*
G75*
G02*
X162439999Y-95930000I249999J0D01*
G01*
X163090001Y-95930000D01*
G75*
G02*
X163340000Y-96179999I0J-249999D01*
G01*
X163340000Y-97080001D01*
G75*
G02*
X163090001Y-97330000I-249999J0D01*
G01*
X162439999Y-97330000D01*
G75*
G02*
X162190000Y-97080001I0J249999D01*
G01*
G37*
%TD.AperFunction*%
%TO.P,D3,2*%
%TO.N,Net-(D1-Pad2)*%
%TA.AperFunction,SMDPad,CuDef*%
G36*
G01*
X164240000Y-97080001D02*
X164240000Y-96179999D01*
G75*
G02*
X164489999Y-95930000I249999J0D01*
G01*
X165140001Y-95930000D01*
G75*
G02*
X165390000Y-96179999I0J-249999D01*
G01*
X165390000Y-97080001D01*
G75*
G02*
X165140001Y-97330000I-249999J0D01*
G01*
X164489999Y-97330000D01*
G75*
G02*
X164240000Y-97080001I0J249999D01*
G01*
G37*
%TD.AperFunction*%
%TD*%
%TO.P,D4,2*%
%TO.N,Net-(D1-Pad2)*%
%TA.AperFunction,SMDPad,CuDef*%
G36*
G01*
X160917035Y-108432213D02*
X161367036Y-107652788D01*
G75*
G02*
X161708541Y-107561282I216505J-124999D01*
G01*
X162271460Y-107886283D01*
G75*
G02*
X162362965Y-108227787I-125000J-216505D01*
G01*
X161912964Y-109007212D01*
G75*
G02*
X161571459Y-109098718I-216505J124999D01*
G01*
X161008540Y-108773717D01*
G75*
G02*
X160917035Y-108432213I125000J216505D01*
G01*
G37*
%TD.AperFunction*%
%TO.P,D4,1*%
%TO.N,GND*%
%TA.AperFunction,SMDPad,CuDef*%
G36*
G01*
X159141683Y-107407213D02*
X159591684Y-106627788D01*
G75*
G02*
X159933189Y-106536282I216505J-124999D01*
G01*
X160496108Y-106861283D01*
G75*
G02*
X160587613Y-107202787I-125000J-216505D01*
G01*
X160137612Y-107982212D01*
G75*
G02*
X159796107Y-108073718I-216505J124999D01*
G01*
X159233188Y-107748717D01*
G75*
G02*
X159141683Y-107407213I125000J216505D01*
G01*
G37*
%TD.AperFunction*%
%TD*%
%TO.P,D5,1*%
%TO.N,GND*%
%TA.AperFunction,SMDPad,CuDef*%
G36*
G01*
X151367788Y-114821684D02*
X152147213Y-114371683D01*
G75*
G02*
X152488717Y-114463188I124999J-216505D01*
G01*
X152813718Y-115026107D01*
G75*
G02*
X152722213Y-115367612I-216505J-125000D01*
G01*
X151942788Y-115817613D01*
G75*
G02*
X151601283Y-115726107I-125000J216505D01*
G01*
X151276282Y-115163188D01*
G75*
G02*
X151367788Y-114821684I216505J124999D01*
G01*
G37*
%TD.AperFunction*%
%TO.P,D5,2*%
%TO.N,Net-(D1-Pad2)*%
%TA.AperFunction,SMDPad,CuDef*%
G36*
G01*
X152392788Y-116597036D02*
X153172213Y-116147035D01*
G75*
G02*
X153513717Y-116238540I124999J-216505D01*
G01*
X153838718Y-116801459D01*
G75*
G02*
X153747213Y-117142964I-216505J-125000D01*
G01*
X152967788Y-117592965D01*
G75*
G02*
X152626283Y-117501459I-125000J216505D01*
G01*
X152301282Y-116938540D01*
G75*
G02*
X152392788Y-116597036I216505J124999D01*
G01*
G37*
%TD.AperFunction*%
%TD*%
%TO.P,D6,2*%
%TO.N,Net-(D1-Pad2)*%
%TA.AperFunction,SMDPad,CuDef*%
G36*
G01*
X140859999Y-119500000D02*
X141760001Y-119500000D01*
G75*
G02*
X142010000Y-119749999I0J-249999D01*
G01*
X142010000Y-120400001D01*
G75*
G02*
X141760001Y-120650000I-249999J0D01*
G01*
X140859999Y-120650000D01*
G75*
G02*
X140610000Y-120400001I0J249999D01*
G01*
X140610000Y-119749999D01*
G75*
G02*
X140859999Y-119500000I249999J0D01*
G01*
G37*
%TD.AperFunction*%
%TO.P,D6,1*%
%TO.N,GND*%
%TA.AperFunction,SMDPad,CuDef*%
G36*
G01*
X140859999Y-117450000D02*
X141760001Y-117450000D01*
G75*
G02*
X142010000Y-117699999I0J-249999D01*
G01*
X142010000Y-118350001D01*
G75*
G02*
X141760001Y-118600000I-249999J0D01*
G01*
X140859999Y-118600000D01*
G75*
G02*
X140610000Y-118350001I0J249999D01*
G01*
X140610000Y-117699999D01*
G75*
G02*
X140859999Y-117450000I249999J0D01*
G01*
G37*
%TD.AperFunction*%
%TD*%
%TO.P,D7,1*%
%TO.N,GND*%
%TA.AperFunction,SMDPad,CuDef*%
G36*
G01*
X130442788Y-114441683D02*
X131222213Y-114891684D01*
G75*
G02*
X131313718Y-115233188I-125000J-216505D01*
G01*
X130988717Y-115796107D01*
G75*
G02*
X130647212Y-115887613I-216505J124999D01*
G01*
X129867787Y-115437612D01*
G75*
G02*
X129776282Y-115096108I125000J216505D01*
G01*
X130101283Y-114533189D01*
G75*
G02*
X130442788Y-114441683I216505J-124999D01*
G01*
G37*
%TD.AperFunction*%
%TO.P,D7,2*%
%TO.N,Net-(D1-Pad2)*%
%TA.AperFunction,SMDPad,CuDef*%
G36*
G01*
X129417788Y-116217035D02*
X130197213Y-116667036D01*
G75*
G02*
X130288718Y-117008540I-125000J-216505D01*
G01*
X129963717Y-117571459D01*
G75*
G02*
X129622212Y-117662965I-216505J124999D01*
G01*
X128842787Y-117212964D01*
G75*
G02*
X128751282Y-116871460I125000J216505D01*
G01*
X129076283Y-116308541D01*
G75*
G02*
X129417788Y-116217035I216505J-124999D01*
G01*
G37*
%TD.AperFunction*%
%TD*%
%TO.P,D8,2*%
%TO.N,Net-(D1-Pad2)*%
%TA.AperFunction,SMDPad,CuDef*%
G36*
G01*
X121222964Y-107692788D02*
X121672965Y-108472212D01*
G75*
G02*
X121581460Y-108813717I-216505J-125000D01*
G01*
X121018541Y-109138718D01*
G75*
G02*
X120677036Y-109047212I-125000J216505D01*
G01*
X120227035Y-108267787D01*
G75*
G02*
X120318541Y-107926283I216505J124999D01*
G01*
X120881460Y-107601282D01*
G75*
G02*
X121222964Y-107692788I124999J-216505D01*
G01*
G37*
%TD.AperFunction*%
%TO.P,D8,1*%
%TO.N,GND*%
%TA.AperFunction,SMDPad,CuDef*%
G36*
G01*
X122998316Y-106667788D02*
X123448317Y-107447212D01*
G75*
G02*
X123356812Y-107788717I-216505J-125000D01*
G01*
X122793893Y-108113718D01*
G75*
G02*
X122452388Y-108022212I-125000J216505D01*
G01*
X122002387Y-107242787D01*
G75*
G02*
X122093893Y-106901283I216505J124999D01*
G01*
X122656812Y-106576282D01*
G75*
G02*
X122998316Y-106667788I124999J-216505D01*
G01*
G37*
%TD.AperFunction*%
%TD*%
%TO.P,D9,1*%
%TO.N,GND*%
%TA.AperFunction,SMDPad,CuDef*%
G36*
G01*
X120415000Y-96149999D02*
X120415000Y-97050001D01*
G75*
G02*
X120165001Y-97300000I-249999J0D01*
G01*
X119514999Y-97300000D01*
G75*
G02*
X119265000Y-97050001I0J249999D01*
G01*
X119265000Y-96149999D01*
G75*
G02*
X119514999Y-95900000I249999J0D01*
G01*
X120165001Y-95900000D01*
G75*
G02*
X120415000Y-96149999I0J-249999D01*
G01*
G37*
%TD.AperFunction*%
%TO.P,D9,2*%
%TO.N,Net-(D1-Pad2)*%
%TA.AperFunction,SMDPad,CuDef*%
G36*
G01*
X118365000Y-96149999D02*
X118365000Y-97050001D01*
G75*
G02*
X118115001Y-97300000I-249999J0D01*
G01*
X117464999Y-97300000D01*
G75*
G02*
X117215000Y-97050001I0J249999D01*
G01*
X117215000Y-96149999D01*
G75*
G02*
X117464999Y-95900000I249999J0D01*
G01*
X118115001Y-95900000D01*
G75*
G02*
X118365000Y-96149999I0J-249999D01*
G01*
G37*
%TD.AperFunction*%
%TD*%
%TO.P,D10,2*%
%TO.N,Net-(D1-Pad2)*%
%TA.AperFunction,SMDPad,CuDef*%
G36*
G01*
X121662965Y-84757787D02*
X121212964Y-85537212D01*
G75*
G02*
X120871459Y-85628718I-216505J124999D01*
G01*
X120308540Y-85303717D01*
G75*
G02*
X120217035Y-84962213I125000J216505D01*
G01*
X120667036Y-84182788D01*
G75*
G02*
X121008541Y-84091282I216505J-124999D01*
G01*
X121571460Y-84416283D01*
G75*
G02*
X121662965Y-84757787I-125000J-216505D01*
G01*
G37*
%TD.AperFunction*%
%TO.P,D10,1*%
%TO.N,GND*%
%TA.AperFunction,SMDPad,CuDef*%
G36*
G01*
X123438317Y-85782787D02*
X122988316Y-86562212D01*
G75*
G02*
X122646811Y-86653718I-216505J124999D01*
G01*
X122083892Y-86328717D01*
G75*
G02*
X121992387Y-85987213I125000J216505D01*
G01*
X122442388Y-85207788D01*
G75*
G02*
X122783893Y-85116282I216505J-124999D01*
G01*
X123346812Y-85441283D01*
G75*
G02*
X123438317Y-85782787I-125000J-216505D01*
G01*
G37*
%TD.AperFunction*%
%TD*%
%TO.P,D11,1*%
%TO.N,GND*%
%TA.AperFunction,SMDPad,CuDef*%
G36*
G01*
X131349713Y-78210640D02*
X130570288Y-78660641D01*
G75*
G02*
X130228783Y-78569135I-125000J216505D01*
G01*
X129903782Y-78006216D01*
G75*
G02*
X129995288Y-77664712I216505J124999D01*
G01*
X130774713Y-77214711D01*
G75*
G02*
X131116217Y-77306217I124999J-216505D01*
G01*
X131441218Y-77869136D01*
G75*
G02*
X131349713Y-78210640I-216505J-124999D01*
G01*
G37*
%TD.AperFunction*%
%TO.P,D11,2*%
%TO.N,Net-(D1-Pad2)*%
%TA.AperFunction,SMDPad,CuDef*%
G36*
G01*
X130324713Y-76435288D02*
X129545288Y-76885289D01*
G75*
G02*
X129203783Y-76793783I-125000J216505D01*
G01*
X128878782Y-76230864D01*
G75*
G02*
X128970288Y-75889360I216505J124999D01*
G01*
X129749713Y-75439359D01*
G75*
G02*
X130091217Y-75530865I124999J-216505D01*
G01*
X130416218Y-76093784D01*
G75*
G02*
X130324713Y-76435288I-216505J-124999D01*
G01*
G37*
%TD.AperFunction*%
%TD*%
%TO.P,D12,2*%
%TO.N,Net-(D1-Pad2)*%
%TA.AperFunction,SMDPad,CuDef*%
G36*
G01*
X141790001Y-73635000D02*
X140889999Y-73635000D01*
G75*
G02*
X140640000Y-73385001I0J249999D01*
G01*
X140640000Y-72734999D01*
G75*
G02*
X140889999Y-72485000I249999J0D01*
G01*
X141790001Y-72485000D01*
G75*
G02*
X142040000Y-72734999I0J-249999D01*
G01*
X142040000Y-73385001D01*
G75*
G02*
X141790001Y-73635000I-249999J0D01*
G01*
G37*
%TD.AperFunction*%
%TO.P,D12,1*%
%TO.N,GND*%
%TA.AperFunction,SMDPad,CuDef*%
G36*
G01*
X141790001Y-75685000D02*
X140889999Y-75685000D01*
G75*
G02*
X140640000Y-75435001I0J249999D01*
G01*
X140640000Y-74784999D01*
G75*
G02*
X140889999Y-74535000I249999J0D01*
G01*
X141790001Y-74535000D01*
G75*
G02*
X142040000Y-74784999I0J-249999D01*
G01*
X142040000Y-75435001D01*
G75*
G02*
X141790001Y-75685000I-249999J0D01*
G01*
G37*
%TD.AperFunction*%
%TD*%
D12*
%TO.N,Net-(D1-Pad2)*%
X150030000Y-118070000D03*
X142470000Y-121160000D03*
%TO.N,GND*%
X142450000Y-118050000D03*
X151060000Y-115630000D03*
X129490000Y-114490000D03*
X122010000Y-106230000D03*
X119820000Y-95280000D03*
X123250000Y-84660000D03*
X131740000Y-77270000D03*
X142560000Y-75100000D03*
X153060000Y-78770000D03*
X160380000Y-86910000D03*
X162760000Y-97780000D03*
X159270000Y-108310000D03*
%TD*%
D13*
%TO.N,Net-(D1-Pad2)*%
X129647500Y-76162324D02*
X129807676Y-76162324D01*
X129807676Y-76162324D02*
X131190000Y-74780000D01*
X131190000Y-74780000D02*
X132640000Y-74780000D01*
X132640000Y-74780000D02*
X134030000Y-73390000D01*
X134030000Y-73390000D02*
X136170000Y-73390000D01*
X136500000Y-73060000D02*
X141340000Y-73060000D01*
X136170000Y-73390000D02*
X136500000Y-73060000D01*
X141340000Y-73060000D02*
X143730000Y-73060000D01*
X143730000Y-73060000D02*
X144190000Y-73520000D01*
X144190000Y-73520000D02*
X146900000Y-73520000D01*
X146900000Y-73520000D02*
X147920000Y-74540000D01*
X147920000Y-74540000D02*
X150280000Y-74540000D01*
X152040000Y-76300000D02*
X153110000Y-76300000D01*
X150280000Y-74540000D02*
X152040000Y-76300000D01*
X153110000Y-76300000D02*
X153500000Y-76300000D01*
X153500000Y-76300000D02*
X156980000Y-79780000D01*
X156980000Y-79780000D02*
X157830000Y-79780000D01*
X161567676Y-83517676D02*
X161567676Y-84807500D01*
X157830000Y-79780000D02*
X161567676Y-83517676D01*
X161567676Y-84807500D02*
X161567676Y-86137676D01*
X161567676Y-86137676D02*
X163810000Y-88380000D01*
X163810000Y-88380000D02*
X163810000Y-92920000D01*
X164815000Y-93925000D02*
X164815000Y-96630000D01*
X163810000Y-92920000D02*
X164815000Y-93925000D01*
X164815000Y-96630000D02*
X164815000Y-101255000D01*
X164815000Y-101255000D02*
X163770000Y-102300000D01*
X163770000Y-106200000D02*
X161640000Y-108330000D01*
X163770000Y-102300000D02*
X163770000Y-106200000D01*
X161640000Y-108330000D02*
X161640000Y-109430000D01*
X161640000Y-109430000D02*
X156460000Y-114610000D01*
X155330000Y-114610000D02*
X153070000Y-116870000D01*
X156460000Y-114610000D02*
X155330000Y-114610000D01*
X153070000Y-116870000D02*
X151230000Y-116870000D01*
X151230000Y-116870000D02*
X150030000Y-118070000D01*
X141385000Y-120075000D02*
X141310000Y-120075000D01*
X142470000Y-121160000D02*
X141385000Y-120075000D01*
X141310000Y-120075000D02*
X135585000Y-120075000D01*
X135585000Y-120075000D02*
X133890000Y-118380000D01*
X130960000Y-118380000D02*
X129520000Y-116940000D01*
X133890000Y-118380000D02*
X130960000Y-118380000D01*
X129520000Y-116940000D02*
X128510000Y-116940000D01*
X128510000Y-116940000D02*
X125340000Y-113770000D01*
X125340000Y-113770000D02*
X124910000Y-113770000D01*
X120950000Y-109810000D02*
X120950000Y-108370000D01*
X124910000Y-113770000D02*
X120950000Y-109810000D01*
X120950000Y-108370000D02*
X120950000Y-107320000D01*
X120950000Y-107320000D02*
X119580000Y-105950000D01*
X119580000Y-105950000D02*
X119580000Y-102860000D01*
X117790000Y-101070000D02*
X117790000Y-96600000D01*
X119580000Y-102860000D02*
X117790000Y-101070000D01*
X117790000Y-96600000D02*
X117790000Y-94280000D01*
X117790000Y-94280000D02*
X118990000Y-93080000D01*
X118990000Y-93080000D02*
X118990000Y-90510000D01*
X118990000Y-90510000D02*
X120690000Y-88810000D01*
X120690000Y-88810000D02*
X120690000Y-87520000D01*
X120940000Y-87270000D02*
X120940000Y-84860000D01*
X120690000Y-87520000D02*
X120940000Y-87270000D01*
%TO.N,GND*%
X141310000Y-118025000D02*
X142425000Y-118025000D01*
X142425000Y-118025000D02*
X142450000Y-118050000D01*
X152045000Y-115094648D02*
X151595352Y-115094648D01*
X151595352Y-115094648D02*
X151060000Y-115630000D01*
X130545000Y-115164648D02*
X130164648Y-115164648D01*
X130164648Y-115164648D02*
X129490000Y-114490000D01*
X122725352Y-107345000D02*
X122725352Y-106945352D01*
X122725352Y-106945352D02*
X122010000Y-106230000D01*
X119840000Y-96600000D02*
X119840000Y-95300000D01*
X119840000Y-95300000D02*
X119820000Y-95280000D01*
X122715352Y-85885000D02*
X122715352Y-85194648D01*
X122715352Y-85194648D02*
X123250000Y-84660000D01*
X130672500Y-77937676D02*
X131072324Y-77937676D01*
X131072324Y-77937676D02*
X131740000Y-77270000D01*
X141340000Y-75110000D02*
X142550000Y-75110000D01*
X142550000Y-75110000D02*
X142560000Y-75100000D01*
X152085000Y-78075352D02*
X152365352Y-78075352D01*
X152365352Y-78075352D02*
X153060000Y-78770000D01*
X159792324Y-85832500D02*
X159792324Y-86322324D01*
X159792324Y-86322324D02*
X160380000Y-86910000D01*
X162765000Y-96630000D02*
X162765000Y-97775000D01*
X162765000Y-97775000D02*
X162760000Y-97780000D01*
X159864648Y-107305000D02*
X159864648Y-107715352D01*
X159864648Y-107715352D02*
X159270000Y-108310000D01*
%TD*%
M02*
