%FSLAX45Y45*%
G04 Gerber Fmt 4.5, Leading zero omitted, Abs format (unit mm)*
G04 Created by KiCad (PCBNEW 5.1.9+dfsg1-1~bpo10+1) date 2022-05-07 14:54:36*
%MOMM*%
%LPD*%
G01*
G04 APERTURE LIST*
%TA.AperFunction,Profile*%
%ADD10C,0.050000*%
%TD*%
%ADD11C,0.200000*%
%ADD12C,0.300000*%
G04 APERTURE END LIST*
D10*
X17130000Y-9658000D02*
G75*
G03*
X17130000Y-9658000I-3000000J0D01*
G01*
D11*
D12*
X11413928Y-13126214D02*
X11413928Y-12826214D01*
X11485357Y-12826214D01*
X11528214Y-12840500D01*
X11556786Y-12869071D01*
X11571071Y-12897643D01*
X11585357Y-12954786D01*
X11585357Y-12997643D01*
X11571071Y-13054786D01*
X11556786Y-13083357D01*
X11528214Y-13111929D01*
X11485357Y-13126214D01*
X11413928Y-13126214D01*
X11713928Y-13126214D02*
X11713928Y-12926214D01*
X11713928Y-12983357D02*
X11728214Y-12954786D01*
X11742500Y-12940500D01*
X11771071Y-12926214D01*
X11799643Y-12926214D01*
X11899643Y-13126214D02*
X11899643Y-12926214D01*
X11899643Y-12826214D02*
X11885357Y-12840500D01*
X11899643Y-12854786D01*
X11913928Y-12840500D01*
X11899643Y-12826214D01*
X11899643Y-12854786D01*
X12085357Y-13126214D02*
X12056786Y-13111929D01*
X12042500Y-13083357D01*
X12042500Y-12826214D01*
X12242500Y-13126214D02*
X12213928Y-13111929D01*
X12199643Y-13083357D01*
X12199643Y-12826214D01*
X12585357Y-13126214D02*
X12585357Y-12826214D01*
X12685357Y-13040500D01*
X12785357Y-12826214D01*
X12785357Y-13126214D01*
X13056786Y-13126214D02*
X13056786Y-12969071D01*
X13042500Y-12940500D01*
X13013928Y-12926214D01*
X12956786Y-12926214D01*
X12928214Y-12940500D01*
X13056786Y-13111929D02*
X13028214Y-13126214D01*
X12956786Y-13126214D01*
X12928214Y-13111929D01*
X12913928Y-13083357D01*
X12913928Y-13054786D01*
X12928214Y-13026214D01*
X12956786Y-13011929D01*
X13028214Y-13011929D01*
X13056786Y-12997643D01*
X13199643Y-12926214D02*
X13199643Y-13226214D01*
X13199643Y-12940500D02*
X13228214Y-12926214D01*
X13285357Y-12926214D01*
X13313928Y-12940500D01*
X13328214Y-12954786D01*
X13342500Y-12983357D01*
X13342500Y-13069071D01*
X13328214Y-13097643D01*
X13313928Y-13111929D01*
X13285357Y-13126214D01*
X13228214Y-13126214D01*
X13199643Y-13111929D01*
X13471071Y-13097643D02*
X13485357Y-13111929D01*
X13471071Y-13126214D01*
X13456786Y-13111929D01*
X13471071Y-13097643D01*
X13471071Y-13126214D01*
X13471071Y-12940500D02*
X13485357Y-12954786D01*
X13471071Y-12969071D01*
X13456786Y-12954786D01*
X13471071Y-12940500D01*
X13471071Y-12969071D01*
M02*
